<?xml version="1.0" standalone="no"?>
<!DOCTYPE svg PUBLIC "-//W3C//DTD SVG 20010904//EN"
 "http://www.w3.org/TR/2001/REC-SVG-20010904/DTD/svg10.dtd">
<svg version="1.0" xmlns="http://www.w3.org/2000/svg"
 width="96.000000pt" height="96.000000pt" viewBox="0 0 96.000000 96.000000"
 preserveAspectRatio="xMidYMid meet">

<g transform="translate(0.000000,96.000000) scale(0.100000,-0.100000)"
fill="#000000" stroke="none">
<path d="M28 619 c-24 -14 -23 -39 2 -39 11 0 20 5 20 11 0 6 8 9 18 7 30 -6
19 -32 -17 -39 -37 -8 -51 -23 -51 -55 0 -39 50 -60 78 -32 8 8 15 8 25 -1 25
-20 35 8 28 77 -4 39 -13 67 -21 72 -20 13 -61 12 -82 -1z m62 -88 c0 -20 -13
-41 -25 -41 -18 0 -26 25 -12 39 13 13 37 15 37 2z"/>
<path d="M164 617 c-3 -8 -4 -45 -2 -83 3 -61 5 -69 23 -69 18 0 20 8 23 63 2
45 7 62 17 62 10 0 15 -17 17 -62 2 -50 6 -63 21 -66 14 -3 17 4 17 46 0 60 7
82 26 82 11 0 14 -16 14 -65 0 -59 2 -65 20 -65 19 0 21 5 18 76 -2 60 -7 79
-20 88 -13 8 -23 8 -38 -2 -16 -10 -24 -10 -40 0 -16 10 -24 10 -40 1 -12 -8
-21 -9 -25 -3 -9 14 -25 12 -31 -3z"/>
<path d="M418 619 c-24 -14 -23 -39 2 -39 11 0 20 5 20 11 0 6 8 9 18 7 26 -5
20 -33 -8 -36 -36 -5 -61 -32 -58 -60 4 -36 30 -49 68 -35 19 7 32 8 36 2 4
-6 10 -6 18 0 17 14 8 121 -12 144 -17 19 -57 22 -84 6z m62 -88 c0 -20 -13
-41 -25 -41 -21 0 -28 19 -15 35 14 17 40 20 40 6z"/>
<path d="M557 616 c-7 -19 1 -26 30 -26 l23 0 -30 -42 c-46 -63 -41 -73 30
-73 43 0 60 3 60 13 0 7 -7 15 -15 17 -8 3 -22 7 -30 10 -13 4 -12 11 10 42
39 58 34 73 -24 73 -33 0 -51 -5 -54 -14z"/>
<path d="M710 612 c-32 -26 -38 -90 -10 -124 53 -67 138 2 109 89 -17 52 -59
67 -99 35z m56 -36 c9 -37 1 -81 -15 -81 -19 0 -32 51 -21 81 12 31 28 31 36
0z"/>
<path d="M840 545 c0 -78 2 -85 20 -85 16 0 19 8 22 63 2 47 7 62 18 62 11 0
16 -15 18 -62 3 -55 5 -63 23 -63 18 0 20 6 17 76 -2 60 -7 79 -20 88 -13 8
-23 8 -38 -1 -12 -8 -21 -9 -25 -3 -3 6 -13 10 -21 10 -11 0 -14 -18 -14 -85z"/>
</g>
</svg>
